# xmcd CD database file
#
# Track frame offsets:
#	150
#	7879
#	19381
#	35417
#	45938
#	56833
#	67589
#	78893
#	91743
#	101912
#	112773
#	124203
#	134011
#	147842
#	159350
#	171514
#	182148
#	196719
#	209743
#
# Disc length: 2954 seconds
#
# Revision: 0
# Processed by: cddbd v1.5.2PL0 Copyright (c) Steve Scherf et al.
# Submitted via: CDex 1.70beta2
#
DISCID=fc0b8813
DTITLE=The Queens Of Country - My Kind Of Music   CD2_2
DYEAR=2013
DGENRE=Country
TTITLE0=Dolly Parton - Puppy Love
TTITLE1=Patsy Cline - Walkin' After Midnight
TTITLE2=Lynn Anderson - Devil Went Down To Georgia
TTITLE3=Patsy Cline - Lovesick Blues
TTITLE4=Dolly Parton - It Wasn't God Who Made Honky Tonk Angels
TTITLE5=Lynn Anderson - Heaven's Just A Sin Away
TTITLE6=Patsy Cline - Dear God
TTITLE7=Dolly Parton - Little Blossoms
TTITLE8=Patsy Cline - Three Cigarettes In An Ashtray
TTITLE9=Lynn Anderson - Someday Soon
TTITLE10=Patsy Cline - Crazy Dreams
TTITLE11=Dolly Parton - The Love You Gave
TTITLE12=Lynn Anderson - Two Doors Down
TTITLE13=Patsy Cline - Let The Teardrops Fall
TTITLE14=Dolly Parton - Two Little Orphans
TTITLE15=Patsy Cline - Gotta Lot Of Rhythm
TTITLE16=Lynn Anderson - Faithless Love
TTITLE17=Patsy Cline - If I Could See The World (through The Eyes Of A Child)
TTITLE18=Dolly Parton - Letter To Heaven
EXTD=YEAR: 2013
EXTT0=
EXTT1=
EXTT2=
EXTT3=
EXTT4=
EXTT5=
EXTT6=
EXTT7=
EXTT8=
EXTT9=
EXTT10=
EXTT11=
EXTT12=
EXTT13=
EXTT14=
EXTT15=
EXTT16=
EXTT17=
EXTT18=
PLAYORDER=
